<?xml version="1.0" encoding="UTF-8"?>
<svg version="1.1" viewBox="0 0 80 80" xmlns="http://www.w3.org/2000/svg" xmlns:xlink="http://www.w3.org/1999/xlink">
<title>1 – Fundamentals/Logos/Clubs/St Pauli STP</title>
<defs>
<path id="c" d="m5.3648 11.326c-0.79041 0.71759-1.666 0.692-2.6853 0.6931-1.2371-0.0027066-1.8309-0.017271-2.6672-0.6931l7.7333e-4 -8.6927c0-1.4485 1.1681-2.5713 2.6751-2.5713 1.507 0 2.6752 1.1228 2.6752 2.5713l0.0014822 8.6927z"/>
<path id="b" d="m5.3648 11.326c-0.79041 0.71759-1.666 0.692-2.6853 0.6931-1.2371-0.0027066-1.8309-0.017271-2.6672-0.6931l7.7333e-4 -8.6927c0-1.4485 1.1681-2.5713 2.6751-2.5713 1.507 0 2.6752 1.1228 2.6752 2.5713l0.0014822 8.6927z"/>
<path id="a" d="m7.7766 12.181c-1.0805 0.76554-2.3056 0.46922-3.7778 0.4709-1.5008-0.0048334-2.8642 0.30134-3.9502-0.4709v-8.4032c0-2.0922 1.6872-3.7139 3.864-3.7139s3.864 1.6217 3.864 3.7139v8.4032z"/>
</defs>
<g fill="none" fill-rule="evenodd">
<rect width="80" height="80"/>
<g transform="translate(11 11)">
<path id="Path" d="m0 29c0-16.016 12.983-29 29-29s29 12.984 29 29c0 16.017-12.984 29-29 29s-29-12.983-29-29z" fill="#604734" fill-rule="nonzero"/>
<path id="Path" d="m1.305 29c0-15.296 12.399-27.695 27.695-27.695s27.695 12.399 27.695 27.695c0 15.296-12.399 27.695-27.695 27.695-15.296 0-27.695-12.399-27.695-27.695z" fill="#fff" fill-rule="nonzero"/>
<path id="Path" d="m11.89 29c0-9.4497 7.6603-17.11 17.11-17.11 9.4498 0 17.11 7.6603 17.11 17.11 0 9.4497-7.6603 17.11-17.11 17.11-9.4497 0-17.11-7.6603-17.11-17.11z" fill="#EC1C24" fill-rule="nonzero"/>
<polygon id="Path" points="11.112 38.481 9.8713 38.481 9.2433 37.402 8.623 38.474 7.3978 38.474 8.018 39.538 7.3978 40.609 8.6383 40.609 9.2586 41.673 9.8866 40.609 11.104 40.609 10.484 39.553" fill="#604734" fill-rule="nonzero"/>
<polygon id="Path" points="50.697 38.481 49.456 38.481 48.828 37.402 48.208 38.474 46.983 38.474 47.603 39.538 46.983 40.609 48.223 40.609 48.844 41.673 49.472 40.609 50.689 40.609 50.069 39.553" fill="#604734" fill-rule="nonzero"/>
<polygon id="Path" points="38.145 17.907 36.904 17.907 36.277 16.828 35.656 17.899 34.431 17.899 35.051 18.963 34.431 20.035 35.672 20.035 36.292 21.099 36.92 20.035 38.137 20.035 37.517 18.979" fill="#fff" fill-rule="nonzero"/>
<path id="Path" d="m29.417 18.685c1.3403 0.085196 2.3109 1.095 2.414 2.414h-5.5708c0.097891-1.3198 1.0729-2.3292 2.414-2.414v-2.5997l-1.6712 0.00348v-0.74846l1.6712 0.0021911v-2.2283h0.74279v2.2283l1.6712-6.44e-5v0.74627l-1.6712-0.00348v2.5998z" fill="#fff" fill-rule="nonzero"/>
<polygon id="Path" points="18.647 21.841 24.961 21.841 24.961 22.956 18.647 22.956" fill="#fff" fill-rule="nonzero"/>
<polygon id="Path" points="25.889 21.841 32.203 21.841 32.203 22.956 25.889 22.956" fill="#fff" fill-rule="nonzero"/>
<polygon id="Path" points="33.131 21.841 39.445 21.841 39.445 22.956 33.131 22.956" fill="#fff" fill-rule="nonzero"/>
<polygon id="Path" points="18.647 28.898 39.445 28.898 39.445 30.012 18.647 30.012" fill="#fff" fill-rule="nonzero"/>
<polygon id="Path" points="18.647 35.026 24.218 35.026 24.218 36.14 18.647 36.14" fill="#fff" fill-rule="nonzero"/>
<polygon id="Path" points="33.874 35.026 39.445 35.026 39.445 36.14 33.874 36.14" fill="#fff" fill-rule="nonzero"/>
<path id="Path" d="m19.402 23.831c0.54185-0.16259 1.419-0.43339 2.0703-0.054133 0.32686 0.19018 0.12277 0.5086 0.014693 0.8024-0.35883 0.27028-0.64548 0.36424-1.0947 0.35863-0.40529-0.0049622-0.65669-0.085067-0.99032-0.31533-0.10923-0.28878-0.35644-0.68466 0-0.79157z" fill="#fff" fill-rule="nonzero"/>
<path id="Path" d="m22.341 24.725s-0.22568-0.6264 9.667e-4 -0.88869c0.24843-0.28755 0.62376-0.058773 0.97253-0.058773 0.24985 0 0.39047 0.031191 0.64032 0.00522 0 0 0.18521 0.62556-5.155e-4 0.94295-0.31771 0.54314-1.6133-7.089e-4 -1.6133-7.089e-4z" fill="#fff" fill-rule="nonzero"/>
<path id="Path" d="m19.729 25.385c-0.2251 0.22974-0.3083 0.29213-0.32383 0.70934-0.015402 0.41547 0.10498 0.66081 0.40697 0.66081 0.093702 0 0.147-0.0035445 0.2407-0.013984 0-0.28633 0.015402-0.51465 0.015402-0.80098 0-0.26551-0.084164-0.4823-0.33924-0.55519z" fill="#fff" fill-rule="nonzero"/>
<path id="Path" d="m26.681 25.416c-0.062447 0.27073-0.043887 0.44389-0.043887 0.71978 0 0.25514 0.0055423 0.58599 0.26029 0.59869 0.44583 0.022233 0.41496-0.67686 0.41496-1.01 6.45e-5 -0.28639-0.34504-0.28762-0.63136-0.30843z" fill="#fff" fill-rule="nonzero"/>
<path id="Path" d="m26.388 24.044c0 0.17696 0.23993 0.41412 0.3701 0.52342 0.2447 0.21344 0.44737 0.18508 0.77018 0.18508 0.18218 0 0.38834-0.030804 0.57053-0.030804 0.38003 0 0.6168-0.2822 0.6168-0.66223 0-0.33318-0.49068-0.45253-0.82386-0.45253h-0.80169c-0.29155 0-0.70206 0.0053489-0.70206 0.43706z" fill="#fff" fill-rule="nonzero"/>
<path id="Path" d="m29.378 24.691c0.11974 0.11974 0.24457 0.07714 0.41638 0.07714h0.55512c0.31236 0 0.49107 0.035896 0.73048-0.16188 0.20306-0.16659 0.10221-0.34278 0.10221-0.60829 0-0.27073-0.53747-0.37294-0.92948-0.38383-0.32892-0.0091511-0.60326-0.024876-0.812 0.22955-0.21015 0.25617-0.062704 0.84732-0.062704 0.84732z" fill="#fff" fill-rule="nonzero"/>
<path id="Path" d="m20.605 25.739c0 0.203-0.065476 0.44718-0.065476 0.65018 0 0.2447 0.5528 0.31571 0.79228 0.35212 0.40084 0.057291 0.67544 0.034864 1.0815 0.034864 0.33318 0 0.64554-0.23948 0.64554-0.57259 0-0.2447 0.057291-0.44248-0.10414-0.62472-0.20822-0.23948-0.45807-0.23426-0.78087-0.27073-0.56221-0.062447-1.3918-0.10537-1.5688 0.43088z" fill="#fff" fill-rule="nonzero"/>
<path id="Path" d="m27.857 25.739c-0.067924 0.26918-0.046013 0.47231 0.10743 0.70367 0.23187 0.34961 0.49248 0.3141 1.0287 0.3141 0.55177 0 1.3253-0.2621 1.2482-0.986-0.024296-0.228-0.48984-0.30244-0.77101-0.3701 0 0-1.4561-0.28504-1.6133 0.33833z" fill="#fff" fill-rule="nonzero"/>
<path id="Path" d="m30.684 26.13c0 0.2967-0.087967 0.65701 0.28214 0.65701 0.35419 0 0.38145-0.1662 0.38145-0.45253 0-0.2447 0.2717-0.93013-0.10833-0.97537-0.17928-0.021331-0.30585 0.034929-0.43352 0.16259-0.1711 0.17104-0.12174 0.36366-0.12174 0.60829z" fill="#fff" fill-rule="nonzero"/>
<path id="Path" d="m33.653 24.233c0 0.56221 0.46819 0.79112 1.3478 0.73441 0.48836-0.031578 1.0323 0.028356 0.94888-0.90738-0.00928-0.10376 0.080491-0.19965-8.378e-4 -0.26042-0.61113-0.4564-0.68633-0.0050911-1.1288-0.0050911-0.45298 6.45e-5 -1.167-0.014371-1.167 0.43848z" fill="#fff" fill-rule="nonzero"/>
<path id="Path" d="m36.827 24.06v0.39562c0 0.33318 0.19159 0.73873 0.52477 0.73873 0.14577 0 0.34736-0.02842 0.49313-0.02842 0.48417 0 0.80865-0.43461 0.80865-0.91872 0-0.25514-0.34291-0.43713-0.58754-0.49435l-0.75684 0.082876-0.39891 0.021267c-0.072822 0.025971-0.083262 0.11974-0.083262 0.203z" fill="#fff" fill-rule="nonzero"/>
<path id="Path" d="m34.192 25.379c-0.34052 0.3121-0.3547 0.38409-0.3547 0.837 0 0.067602 0.02842 0.43964 0.02842 0.50731 0.072887 0 0.22504 0.02842 0.29793 0.02842 0.28633 0 0.38306-0.39131 0.38306-0.67757 0-0.29677-0.099567-0.54417-0.3547-0.69516z" fill="#fff" fill-rule="nonzero"/>
<path id="Path" d="m35.001 26.064c0.017916 0.1026 0.13037 0.30766 0.28343 0.44531 0.28871 0.25965 0.61622 0.19984 0.97537 0.19984 0.35921 0 0.89668-0.17374 0.93129-0.69935 0.027969-0.4252-0.81181-0.63078-1.1866-0.63078-0.40613 0-1.0948 0.16279-1.0035 0.68498z" fill="#fff" fill-rule="nonzero"/>
<path id="Path" d="m36.786 27.612c0 0.46851 0.52058 0.68717 0.98909 0.68717 0.22382 0 0.31236-0.15621 0.49977-0.27073 0.17181-0.10414 0.35399-0.19256 0.35399-0.39562 0-0.33318-0.34355-0.52058-0.67673-0.52058-0.49455 0-1.1661 0.00522-1.1661 0.49977z" fill="#fff" fill-rule="nonzero"/>
<path id="Path" d="m35.621 28.298c0.30128-0.1972 0.6043-0.6574 0.31268-0.86865-0.18463-0.13372-0.46458 0.015853-0.58432 0.015853-0.20822 0-0.33962-0.11233-0.56492-0.12425-0.35122-0.018624-0.69832-0.11684-0.88315 0.18238-0.065347 0.10582-0.09222 0.23767-0.09222 0.30527 0 0.27073-0.0097311 0.3926 0.13572 0.56763 0.25146 0.3027 0.61325 0.0060578 1.0089 0.0060578 0.24463 0 0.44776 0.059353 0.66726-0.084293z" fill="#fff" fill-rule="nonzero"/>
<path id="Path" d="m30.976 28.299c-0.23948 0.036476-0.38673 0.045369-0.62614 0.045369-0.36443 0-0.6014-0.07714-0.89391-0.25365-0.077527-0.054778-0.077527-0.1403-0.077527-0.28607 0-0.40091 0.74027-0.52432 1.1411-0.52432 0.38003 0 0.66474 0.11806 0.66474 0.49809-6.45e-5 0.20816-0.083327 0.35399-0.20828 0.52058z" fill="#fff" fill-rule="nonzero"/>
<path id="Path" d="m27.883 27.373c-0.22904 0-0.39356 0.010053-0.6226 0.010053-0.31236 0-0.84145 0.0014178-0.84145 0.31384 0 0.40606 0.37951 0.43171 0.78558 0.43171h0.80182c0.38003 0 0.69394-0.067151 0.69394-0.44718 0-0.16659-0.22175-0.27756-0.38828-0.27756-0.18225 0-0.24682-0.030869-0.42901-0.030869z" fill="#fff" fill-rule="nonzero"/>
<path id="Path" d="m23.259 28.345h-0.87812c0.01044-0.12489-0.25816-0.19398-0.25816-0.31894 0-0.14055 0.11026-0.25314 0.22807-0.37932 0.4225-0.4524 1.0141 0.03886 1.5868 0.03886 0 0.078042 0.015402 0.24205 0.015402 0.32022 0 0.11974-0.16324 0.1894-0.26216 0.24676-0.20828 0.12998-0.18193 0.092413-0.43178 0.092413z" fill="#fff" fill-rule="nonzero"/>
<path id="Path" d="m21.091 28.299c-0.69755 0-0.77772 0.066507-1.4701 0.0145 0-0.036411-0.19855-0.34214-0.20049-0.44718-0.0074111-0.41116 0.25178-0.43171 0.66307-0.43171 0.52058 0 1.3562-0.27382 1.3562 0.24676 0 0.23419-0.11439 0.61764-0.34864 0.61764z" fill="#fff" fill-rule="nonzero"/>
<path id="Path" d="m19.375 31.226c0.04872 0.48688 0.72919 0.30392 1.2186 0.30392 0.39562 0 0.64032 0.10936 1.0151-0.020751 0.27589-0.093702 0.33318-0.37487 0.33318-0.66642 0-0.14577-0.23226-0.21795-0.37803-0.23361-0.40606-0.041631-0.50866 0.044531-0.86265-0.15331-0.43738-0.24463-1.3879 0.15331-1.3262 0.77018z" fill="#fff" fill-rule="nonzero"/>
<path id="Path" d="m22.797 30.61c-0.31423 0.23529 0.019398 0.89449 0.46194 0.89449 0.19784 0 0.68002-0.011407 0.8778-0.011407 0.14577 0 0.24083 0.011407 0.3866 0.011407h0.7239c0.36965 0 0.78461-0.17568 0.74014-0.66307-0.025971-0.28517-0.46071-0.26467-0.74704-0.26467-0.50499 0-0.79802 0.048784-1.303 0.048784h-0.50885c-0.26545 0-0.43429-0.16317-0.63149-0.015531z" fill="#fff" fill-rule="nonzero"/>
<path id="Path" d="m19.369 32.222c-0.28291 0.17606 0.035509 0.5472 0.02088 0.85402-0.015402 0.32383 0.23935 0.27756 0.41638 0.27756 0.26551 0 0.50885-0.12 0.50885-0.38551 0-0.43204-0.1847-0.81638-0.6168-0.81638-0.093702 0-0.21789 9.022e-4 -0.32931 0.070309z" fill="#fff" fill-rule="nonzero"/>
<path id="Path" d="m23.937 32.71c0 0.23948 0.21866 0.4165 0.45807 0.4165 0.39047 0 0.60507-0.43642 0.66674-0.86736-0.22382-0.20822-0.55551-0.030804-0.86265-0.030804-0.2291 0-0.26216 0.25262-0.26216 0.48166z" fill="#fff" fill-rule="nonzero"/>
<path id="Path" d="m22.35 34.109c0 0.25507 0.20751 0.3547 0.46258 0.3547 0.35399 0 0.76193 0.10878 1.0379-0.10466 0.1874-0.14577 0.1874-0.34877 0.1874-0.58825 0-0.093702-0.0079267-0.10898-0.11587-0.18599-0.057227 0-0.31281-0.046336-0.3701-0.046336-0.61944-6.45e-5 -1.2019-0.048978-1.2019 0.57053z" fill="#fff" fill-rule="nonzero"/>
<path id="Path" d="m22.014 32.015c-0.23052 0.019849-0.34504 0.18515-0.5637 0.18515-0.28633 0-0.73434-0.094927-0.70354 0.39852 0.032093 0.5144 0.35322 0.75471 1.1711 0.75471 0.69394 0 1.2452-0.26306 1.2452-0.82006 0-0.46851-0.65927-0.56041-1.149-0.51833z" fill="#fff" fill-rule="nonzero"/>
<path id="Path" d="m31.865 30.618c0.57768-0.56505 2.1857-2.577e-4 3.5861-2.577e-4 0.27067 0 0.6012 0.27608 0.6012 0.54681 0 0.32274-0.53992 0.3547-0.86265 0.3547h-2.5435c-0.48939 0-0.87896-0.13881-0.76109-0.80253 0.00638-0.03596-0.048076-0.071276-0.020042-0.098729z" fill="#fff" fill-rule="nonzero"/>
<path id="Path" d="m36.827 30.623v0.54662c0 0.19262-0.11181 0.38029 0.36443 0.34877 0.27531-0.018173 0.44976-0.014758 0.72564-0.014758h0.41631c0.28633 0 0.33646-0.40684 0.33646-0.69323 0-0.1354-0.16137-0.16143-0.29155-0.1874-0.24985-0.052071-0.39562-0.083327-0.65592-0.083327-0.34877 0-0.54662 0.083327-0.89539 0.083327z" fill="#fff" fill-rule="nonzero"/>
<path id="Path" d="m33.197 32.45c0.098922 0.49455 0.44969 0.88798 0.9443 0.88798 0.40084 0 0.54462-0.48714 0.66958-0.86716 0 0-0.4504-0.3382-0.78506-0.34768-0.34736-0.0097956-0.82882 0.32686-0.82882 0.32686z" fill="#fff" fill-rule="nonzero"/>
<path id="Path" d="m35.467 32.213c-0.15834 0.12012-0.21557 0.25359-0.21557 0.46187 0 0.19784 0.018689 0.44402 0.18367 0.64883 0.32834 0.40761 0.80588-0.0012244 1.3421-0.0012244 0.38003 0 0.55519-0.33924 0.50853-0.89333-0.025778-0.30611-0.4477-0.24992-0.7549-0.24992h-0.45292s-0.42082-0.11052-0.61087 0.033769z" fill="#fff" fill-rule="nonzero"/>
<path id="Path" d="m37.979 32.506v0.49261c0 0.22388 0.30953 0.31546 0.53334 0.31546 0.072887 0 0.11974-0.01044 0.19262-0.020816 0 0 0.29013-0.46232 0.17806-0.73525-0.085196-0.20758-0.33427-0.37887-0.4332-0.37887-0.1874 0-0.35109 0.19146-0.47083 0.32686z" fill="#fff" fill-rule="nonzero"/>
<path id="Path" d="m38.627 33.785c-0.3384 0-0.60887 0.0116-0.94727 0.0116-0.41122 0-0.99431-0.057227-0.99431 0.35399 0 0.18734 0.18257 0.3219 0.33872 0.42082 0.16659 0.10414 0.15164 0.10794 0.35464 0.10794 0.23426 0 0.53611 0.026616 0.75477-0.046271 0.15615-0.052007 0.38415-0.080684 0.49345-0.20042 0.13011-0.14055 0.031191-0.45504 0-0.64767z" fill="#fff" fill-rule="nonzero"/>
<path id="Path" d="m36.839 36.729c-0.2291 0.20397-0.0070244 0.56834 0.15434 0.77134 0.16659 0.20822 0.41212 0.069471 0.68285 0.069471 0.15615 0 0.28588 0.034156 0.44202 0.038473 0.55512 0.015402 0.48984-0.49661 0.51066-0.89223 0 0-1.3293-0.39711-1.7899 0.012953z" fill="#fff" fill-rule="nonzero"/>
<path id="Path" d="m34.814 37.615c-0.29657-0.0097311-0.47573-0.02436-0.64225-0.26906-0.088482-0.13018-0.21151-0.35567-0.21151-0.5171v-0.1613c0.046851-0.00522 0.072887-0.02088 0.11974-0.02088 0.38518 0 0.5354-0.045627 0.92059-0.045627 0.27073 0 0.49016 0.10807 0.7609 0.10807 0.13011 0 0.35328 0.21376 0.35232 0.34388-0.0047076 0.64863-0.57053 0.58593-1.2998 0.56202z" fill="#fff" fill-rule="nonzero"/>
<path id="Path" d="m34.187 38.086c-0.15099 0.26023-0.30837 0.46903-0.30837 0.77101 0 0.22904-0.072564 0.42933 0.57053 0.3538 0.18612-0.021847 0.41631 0.092478 0.42727-0.28929 0.010891-0.3799-0.27073-0.87954-0.68943-0.83552z" fill="#fff" fill-rule="nonzero"/>
<path id="Path" d="m35.267 38.672c0 0.31236 0.07714 0.58516 0.60056 0.55435 0.21827-0.012889 0.70934 0 0.70934 0s0.38087 0.01798 0.58393-0.080878c0.18747-0.093767 0.3567-0.1983 0.3567-0.41174s-0.21273-0.28214-0.32377-0.46258c-0.12335-0.20042-0.694-0.2398-1.074-0.2398-0.40091-6.44e-5 -0.85273 0.2398-0.85273 0.64064z" fill="#fff" fill-rule="nonzero"/>
<path id="Path" d="m38.088 38.101s-0.34729 0.51227-0.19211 0.78783c0.1024 0.1818 0.35593 0.29773 0.44441 0.29773 0.20306 0 0.41103-0.1044 0.42172-0.30708 0.035316-0.67054-0.27073-0.85866-0.67402-0.77849z" fill="#fff" fill-rule="nonzero"/>
<path id="Path" d="m33.96 40.127v0.13018c0 0.19262-0.026036 0.32796 0.062447 0.49455 0.19784 0.38003 0.65592 0.24985 1.088 0.24985 0.36443 0 0.90061 0.11452 0.90061-0.24985 0-0.27073 0.041696-0.46336-0.10408-0.68717-0.16659-0.25514-0.50628-0.1296-0.81026-0.16047-0.70786-0.071662-0.74014 0.046336-1.1367 0.22291z" fill="#fff" fill-rule="nonzero"/>
<path id="Path" d="m36.839 39.92c-0.062447 0.29155-0.21976 0.41051-0.21976 0.70728 0 0.3123 0.28143 0.46381 0.71321 0.37474 0.2804-0.057807 0.51536 0.098922 0.73402-0.083327 0.31236-0.26551 0.33859-0.5258 0.40626-0.93709-0.12496-0.046851-0.2813-0.12489-0.41663-0.12489-0.13533 0-0.21344 0.041696-0.34877 0.041696-0.33324 0-0.51362-0.024682-0.86832 0.021589z" fill="#fff" fill-rule="nonzero"/>
<path id="Path" d="m35.932 41.537c-0.38847 0.15583-0.6652 0.26422-0.6652 0.63381 0 0.2967 0.35805 0.26158 0.65482 0.26158 0.46858 0 1.0252-0.24611 0.93264-0.75503-0.027969-0.15364-0.22465-0.22369-0.3808-0.22369-0.23432 6.45e-5 -0.30721 0.046916-0.54146 0.083327z" fill="#fff" fill-rule="nonzero"/>
<path id="Path" d="m33.898 42.078c0 0.38003-0.01914 0.81709 0.47895 0.85376 0.31152 0.022813 0.44254-0.38731 0.44254-0.69967 0-0.16137-0.067731-0.26345-0.067731-0.42482-0.13018-0.18225-0.30714-0.4321-0.49977-0.31236-0.22388 0.13533-0.35399 0.31758-0.35399 0.58309z" fill="#fff" fill-rule="nonzero"/>
<path id="Path" d="m21.502 41.477c-0.31758 0-0.73931 0.037056-0.73931 0.35464 0 0.46851 0.49261 0.6168 1.2138 0.55906 0.2543-0.0203 0.60494 0.13488 0.61428-0.22904 0.0116-0.4475-0.64109-0.68466-1.0888-0.68466z" fill="#fff" fill-rule="nonzero"/>
<path id="Path" d="m23.243 39.642c-0.17181 0.11458-0.61338 0.21048-0.81638 0.23129-0.22388 0.026036-0.29296 0.22336-0.29296 0.44718 0 0.19784 0.015402 0.40362 0.015402 0.6014 0.15621 0.15615 0.35638 0.079718 0.57504 0.079718s0.39285 0.058193 0.61151 0.058193c0.25507 0 0.46-0.14294 0.5182-0.39137 0.11394-0.48675-0.05568-0.77971-0.6108-1.0264z" fill="#fff" fill-rule="nonzero"/>
<path id="Path" d="m20.073 41.002c-0.22388 0-0.46858 0.078042-0.55706-0.12496-0.11452-0.27073-0.083262-0.45807-0.083262-0.75484 0-0.088482 0.010376-0.1354 0.020816-0.22382h1.7336c0.22388 0 0.44248 0.15099 0.44248 0.37474 0 0.39562-0.25597 0.75638-0.65166 0.75638-0.32796 0-0.57684-0.027518-0.90486-0.027518z" fill="#fff" fill-rule="nonzero"/>
<path id="Path" d="m21.394 38.101c-0.27073 0-0.43171 0.31526-0.43171 0.58599 0 0.19256-0.12889 0.39614 0.030998 0.52374 0.69594 0.55525 2.7121 0.056196 2.7121 0.056196 0.093702-0.19256 0.16259-0.43674 0.16259-0.65018 0-0.47373-0.58161-0.50028-1.0554-0.50028-0.12489 0-1.1271-0.015467-1.4186-0.015467z" fill="#fff" fill-rule="nonzero"/>
<path id="Path" d="m19.344 39.226c0-0.26551-0.20042-0.48926-0.20042-0.75471 0-0.21866 0.2911-0.34381 0.50763-0.37416 0.63349-0.088482 0.84036 0.83797 0.46348 1.1282-0.23819 0.18334-0.77069 6.445e-4 -0.77069 6.445e-4z" fill="#fff" fill-rule="nonzero"/>
<path id="Path" d="m20.269 37.639c-0.58664-0.011084-0.87896-0.25642-0.87896-0.70934 0-0.26023 0.18508-0.44634 0.57175-0.4078 0.4196 0.04176 0.66114-0.020816 1.0828-0.020816 0.29677 0 0.40084 0.35921 0.40084 0.65592 0 0.45292-0.35999 0.49745-1.1764 0.48204z" fill="#fff" fill-rule="nonzero"/>
<path id="Path" d="m23.401 36.502c-0.16659 0-0.26042 0.0058645-0.42688 0-0.54694-0.019398-0.8245 0.011858-0.8245 0.319 0 0.17703-0.015402 0.3701 0.14255 0.52432 0.34884 0 0.44847 0.2775 0.79731 0.2775 0.31236 0 0.70934-0.18502 0.6708-0.65231-0.018882-0.2282-0.13018-0.46851-0.35928-0.46851z" fill="#fff" fill-rule="nonzero"/>
<path id="Path" d="m23.459 41.446c-0.26216 0.046271-0.22156 0.45027-0.22994 0.71559-0.016756 0.53347-0.025584 0.70309 0.26074 0.70309 0.1093 0 0.3808-0.067667 0.37771-0.32338-0.0029645-0.24399 0.11967-0.35135 0.11967-0.59605 6.45e-5 -0.19784-0.21976-0.45292-0.52819-0.49925z" fill="#fff" fill-rule="nonzero"/>
<path id="Path" d="m38.399 26.539h-0.45395c-0.20474 0-0.25037-0.28098-0.25037-0.48572 0-0.172-0.068504-0.27937 0-0.43423 0.15492-0.35051 0.98271 1.934e-4 0.98271 1.934e-4v0.41766c-6.44e-5 0.17194-0.18831 0.36282-0.2784 0.50209z" fill="#fff" fill-rule="nonzero"/>
<polygon id="Path" points="23.661 17.907 22.42 17.907 21.792 16.828 21.172 17.899 19.947 17.899 20.567 18.963 19.947 20.035 21.187 20.035 21.808 21.099 22.436 20.035 23.653 20.035 23.033 18.979" fill="#fff" fill-rule="nonzero"/>
<g transform="translate(26.358 32.351)">
<g id="Clipped">
<mask id="f" fill="white">
<use xlink:href="#c"/>
</mask>
<path id="Path" d="m4.9042 13.486-6.4444e-4 -10.911c0-1.1471-0.78596-2.0769-1.8538-2.0769-0.0032222 0-2.5778e-4 10.589-2.5778e-4 12.988h1.8547z" fill="#fff" fill-rule="nonzero" mask="url(#f)"/>
</g>
<g id="i">
<mask id="e" fill="white">
<use xlink:href="#b"/>
</mask>
<path id="Path" d="m0.48172 13.486-6.4444e-5 -10.911c0-1.1471 0.80311-2.0769 1.8543-2.0769 0.0032222 0 9.6666e-4 10.589 9.6666e-4 12.988h-1.8552z" fill="#fff" fill-rule="nonzero" mask="url(#e)"/>
</g>
</g>
<g transform="translate(25.133 31.062)">
<mask id="d" fill="white">
<use xlink:href="#a"/>
</mask>
<path id="Shape" d="m6.8699 14.775c-1.048 0.00406-4.6975 0.00406-5.9137 0l4.5111e-4 -10.938c0-1.6005 1.2908-2.8412 2.9559-2.8412 1.6652 0 2.9559 1.2406 2.9559 2.8412l0.0014178 10.938zm0.90667-2.2699c-1.0805 0.7656-2.3918 1.3354-3.864 1.337-1.5008-0.0048978-2.778-0.56479-3.864-1.337v-8.7276c0-2.0922 1.6872-3.7139 3.864-3.7139s3.864 1.6217 3.864 3.7139v8.7276z" fill="#fff" mask="url(#d)"/>
</g>
<path id="Path" d="m23.415 26.264c0 0.078042 0.10769 0.28201 0.10769 0.36012 0 0.052007 0.17548 0.0054134 0.22755 0.0054134 0.14055 0 0.24992-0.12496 0.24992-0.26551 0-0.30714 0.25862-0.57175 0.096087-1.0052-0.083391-0.22227-0.40877-0.12676-0.60874 0.0012889-0.1189 0.33311-0.0725 0.6072-0.0725 0.9039z" fill="#fff" fill-rule="nonzero"/>
<path id="Path" d="m19.159 34.356c0.015402 0.23129 0.64722 0.1943 0.94914 0.21505 0.51021 0.041631 0.43648-0.10711 0.94662-0.10711 0.13018 0 0.61622 0.025456 0.61622-0.10472 0-0.36965-0.24611-0.55841-0.84751-0.57381-1.1886-0.030418-1.4332 0.12341-1.6645 0.57059z" fill="#fff" fill-rule="nonzero"/>
<path id="Path" d="m36.157 34.088c-0.21292-0.39556-0.57787-0.31236-0.9735-0.31236-0.20822 0-0.44898 0.024811-0.6572 0.024811-0.203 0-0.41631 0.10537-0.41631 0.30843 0 0.16659 0.13701 0.24057 0.27756 0.32383 0.203 0.12483 1.7107 0.061609 1.7695-0.34471z" fill="#fff" fill-rule="nonzero"/>
<path id="Shape" d="m31.811 10.034 0.19378-2.2148c1.7419 0.19759 2.9726-0.23683 3.1263-1.9944 0.15538-1.7754-1.1505-2.4137-2.9061-2.5673l-1.8347-0.16047-0.59147 6.7609 2.0121 0.17606zm1.2906-4.4139c-0.043951 0.50215-0.41348 0.74994-0.96351 0.67467l0.13656-1.5602 0.14874 0.0039956c0.49319 0.043113 0.71585 0.45111 0.67821 0.88154z" fill="#604734"/>
<path id="Shape" d="m40.066 13.164 1.6102-6.7796-2.2061-1.0999-4.6314 5.2734 1.8605 0.92761 0.54011-0.70612 1.2138 0.60513-0.25662 0.84751 1.8694 0.93206zm-1.9449-3.5541 0.95075-1.2858c0.25958-0.3433 0.49667-0.70779 0.73853-1.0598l0.017722 0.0087644c-0.14442 0.40065-0.30173 0.80491-0.43738 1.2099l-0.50782 1.5066-0.7618-0.37977z" fill="#604734"/>
<polygon id="Path" points="10.237 25.256 7.6757 24.805 7.9267 23.381 6.3488 23.103 6.0978 24.526 5.1316 24.356 5.3998 22.835 3.8219 22.557 3.203 26.067 9.8867 27.245" fill="#604734" fill-rule="nonzero"/>
<path id="Path" d="m6.5372 16.126c-0.25262 0.23793-0.45008 0.52632-0.6119 0.8439-0.44499 0.87335-1.0308 3.1529 1.6799 4.5342 2.0691 1.0543 3.7259 0.32061 4.4766-1.1527 0.20229-0.39691 0.29644-0.76012 0.3364-1.1954l-1.6382-0.96808c0.092284 0.41367 0.10627 0.74311-0.10053 1.1489-0.45852 0.89984-1.4736 0.67145-2.1793 0.31185-0.66565-0.33917-1.4871-1.0467-1.0106-1.9818 0.18882-0.37049 0.42501-0.51684 0.77991-0.6583l-1.7323-0.88263z" fill="#604734" fill-rule="nonzero"/>
<polygon id="Path" points="47.21 23.061 48.674 22.41 48.058 21.026 52.793 18.918 51.972 17.072 45.773 19.833" fill="#604734" fill-rule="nonzero"/>
<path id="Path" d="m48.301 11.703-3.1259 2.915c-0.12502 0.11664-0.28942 0.28343-0.46812 0.36882-0.16536 0.086549-0.35838 0.090609-0.55416-0.11929-0.18902-0.20268-0.17149-0.39498-0.073789-0.56724 0.091124-0.16614 0.26899-0.31848 0.40052-0.44119l3.1193-2.9088-1.377-1.4768-3.2443 3.0255c-0.59882 0.55848-1.6681 1.8262-0.075013 3.5346 1.5931 1.7084 2.9324 0.73016 3.5312 0.17168l3.2443-3.0254-1.3771-1.4767z" fill="#604734" fill-rule="nonzero"/>
<path id="Path" d="m24.773 10.491c0.58973-0.20306 0.93-0.79628 0.74543-1.3325-0.19636-0.5702-0.84545-0.81316-1.454-0.60359-0.55235 0.19024-0.87741 0.79718-0.69864 1.3163 0.18753 0.54468 0.808 0.82605 1.4072 0.61976z" fill="#604734" fill-rule="nonzero"/>
<polygon id="Path" points="22.044 11.177 19.876 6.5272 20.925 6.0375 20.226 4.5365 16.34 6.3484 17.04 7.8495 18.045 7.3808 20.213 12.031" fill="#604734" fill-rule="nonzero"/>
<path id="Path" d="m15.324 15.243c0.47979-0.16762 0.9454-0.42907 1.3398-0.75999 1.0771-0.90377 1.1724-2.2997 0.36231-3.2651-0.32976-0.39298-0.65985-0.58612-1.0386-0.66777-0.37114-0.088031-0.79106-0.064767-1.2908 0.0021267-0.13553 0.0079911-0.30714 0.034478-0.46 0.021718-0.15286-0.012696-0.30212-0.051942-0.39472-0.16227-0.16775-0.19997-0.046207-0.50176 0.13585-0.6545 0.35644-0.29915 0.69858-0.43732 1.1639-0.49938l-1.11-1.2849c-0.45917 0.1151-0.94798 0.34897-1.3196 0.66081-1.3198 1.1074-0.81877 2.5671-0.30959 3.1738 0.31823 0.37926 0.68253 0.56698 1.0747 0.64921 0.40548 0.082747 0.83874 0.059933 1.3215 0.01914 0.15067-0.020687 0.2938-0.035058 0.42566-0.016433 0.13952 0.01218 0.26023 0.063607 0.36437 0.18779 0.19088 0.22749 0.046593 0.54836-0.16582 0.72661-0.3944 0.33092-0.6844 0.42237-1.2427 0.4533l1.1438 1.4158z" fill="#604734" fill-rule="nonzero"/>
<polygon id="Path" points="48.011 27.248 54.732 26.303 54.451 24.303 47.73 25.247" fill="#604734" fill-rule="nonzero"/>
<path id="h" d="m35.881 46.911c-1.9636 0.67609-1.8439 2.7552-1.3551 4.1747 0.48875 1.4195 1.6744 3.1316 3.638 2.4556 1.9636-0.67615 1.8439-2.7551 1.3551-4.1747-0.48875-1.4196-1.6744-3.1316-3.638-2.4556zm0.50924 1.4791c0.57974-0.19958 1.0005 0.90106 1.2493 1.6235 0.24876 0.72255 0.59476 1.849 0.015016 2.0486-0.57968 0.19965-1.0005-0.90106-1.2493-1.6236-0.24882-0.72242-0.59482-1.8489-0.01508-2.0485z" fill="#604734"/>
<polygon id="g" points="19.813 53.448 22.475 47.206 20.256 46.26 19.266 47.54 20.003 47.854 17.955 52.656" fill="#604734" fill-rule="nonzero"/>
<polygon points="32.769 54.804 32.09 48.053 29.69 48.294 29.44 49.893 30.237 49.813 30.76 55.006" fill="#604734" fill-rule="nonzero"/>
<path d="m25.747 49.284c0.64767 0.13765 0.58077 0.69729 0.51382 1.0122-0.063542 0.29876-0.25713 0.78087-0.85498 0.65372-0.59785-0.12708-0.61938-0.638-0.55757-0.92864 0.065218-0.30688 0.25108-0.87503 0.89874-0.73731zm-2.6096 5.0959 1.968 0.37822 1.0057-0.99818c0.71733-0.80414 1.724-1.9699 1.9447-3.0083 0.28252-1.329-0.32957-2.5904-1.8786-2.9197-1.578-0.33543-2.7727 0.47753-3.0702 1.8768-0.1983 0.93283 0.17245 2.235 1.3535 2.4861 0.27105 0.057613 0.47966 0.028356 0.71694-0.040793l-2.0401 2.2258z" fill="#604734"/>
</g>
</g>
</svg>
