<?xml version="1.0" encoding="UTF-8"?>
<svg version="1.1" viewBox="0 0 80 80" xmlns="http://www.w3.org/2000/svg">
<title>1 – Fundamentals/Logos/Clubs/Kiel KIE</title>
<g fill="none" fill-rule="evenodd">
<rect width="80" height="80"/>
<g transform="translate(11 11)" fill-rule="nonzero">
<path id="Path" d="m29 58c16.017 0 29-12.982 29-29s-12.984-29-29-29-29 12.984-29 29 12.984 29 29 29z" fill="#005397"/>
<path id="Shape" d="m1.8315 29c0 14.981 12.188 27.168 27.168 27.168 14.98 0 27.17-12.186 27.17-27.168s-12.188-27.168-27.169-27.168-27.168 12.188-27.168 27.168zm0.79782 0c0-14.541 11.83-26.371 26.371-26.371s26.372 11.83 26.372 26.371-11.831 26.371-26.372 26.371-26.371-11.83-26.371-26.371z" fill="#fff"/>
<polygon id="Path" points="11.055 35.008 11.047 35.006 10.108 34.763 12.877 32.824 12.475 31.149 8.4106 34.16 8.3971 34.157 4.573 33.279 4.9577 34.876 8.4732 35.562 8.4848 35.629 5.3231 36.389 5.6776 37.878 13.632 35.963 13.277 34.475" fill="#fff"/>
<polygon id="Path" points="12.418 30.781 12.283 29.258 4.1348 29.983 4.2707 31.508" fill="#fff"/>
<polygon id="Path" points="12.255 28.9 12.62 25.113 11.119 24.964 10.906 27.228 8.972 27.036 9.1878 24.871 7.6876 24.722 7.473 26.886 5.7716 26.719 6.0004 24.408 4.5124 24.191 4.1186 28.091" fill="#fff"/>
<polygon id="Path" points="11.911 22.766 5.753 20.273 5.1794 21.691 12.763 24.76 14.146 21.358 12.746 20.791 11.939 22.778" fill="#fff"/>
<polygon id="Path" points="15.246 16.993 13.935 18.875 12.332 17.779 13.561 15.983 12.317 15.132 11.087 16.927 9.6744 15.96 10.986 14.047 9.7846 13.138 7.5664 16.369 14.314 20.99 16.491 17.845" fill="#fff"/>
<path id="Shape" d="m19.021 15.591 1.2792-1.0575-0.035444-0.042533c-0.25327 0.051556-0.41502-0.070889-1.4564-1.2889-0.74691-0.87387-1.2618-1.3701-2.1067-0.88547l-0.021267 0.012244-0.047689-0.052844 0.013533-0.019978c0.44144-0.65798 0.31513-1.3688-0.39891-2.2369-0.32222-0.39247-0.84487-0.87258-1.4887-0.9338-0.42147-0.038667-0.83778 0.10762-1.2348 0.43758l-2.0332 1.711 5.3212 6.2949 1.113-0.97182-2.2182-2.6422 0.49107-0.40471c0.4234-0.34864 0.76302-0.15982 1.6536 0.91704 0.58451 0.70631 0.90222 1.0266 1.1697 1.1639zm-3.7378-3.0166-0.40342 0.33382-1.383-1.6756 0.39504-0.32738c0.45111-0.36927 0.87644-0.27904 1.3411 0.28291 0.64831 0.78944 0.20171 1.2605 0.048978 1.3862h0.0012889z" fill="#fff"/>
<path id="Path" d="m23.359 13.51c1.403-0.62253 1.74-1.6981 1.0376-3.2867-0.65604-1.4867-1.6646-1.5125-2.5546-1.5351-0.67473-0.0174-1.3121-0.033511-1.6214-0.73467-0.14049-0.31513-0.17207-0.58-0.094089-0.77978 0.060882-0.14991 0.18063-0.26826 0.33124-0.32738 0.22556-0.10053 0.41244-0.077333 0.58838 0.072822 0.15273 0.12373 0.30096 0.3538 0.46722 0.72178l1.345-0.59547-0.064444-0.15144c-0.27324-0.61738-0.63478-1.0395-1.0743-1.2541-0.49687-0.24296-1.0923-0.2146-1.7684 0.084422-1.74 0.76624-1.3926 2.2556-1.0311 3.0708 0.69858 1.5802 1.7116 1.6002 2.6048 1.6163 0.66507 0.012244 1.294 0.0232 1.6111 0.74304 0.10376 0.23458 0.20364 0.5742 0.092156 0.86162-0.067583 0.16764-0.20146 0.29988-0.36991 0.3654-0.24296 0.10827-0.46529 0.085067-0.66056-0.068311-0.16111-0.12889-0.30933-0.34607-0.45111-0.66893l-0.1044-0.23458-1.3482 0.5916 0.20042 0.45884c0.57936 1.2998 1.5151 1.6433 2.8646 1.0498z" fill="#fff"/>
<polygon id="Path" points="27.794 3.9543 27.683 10.44 27.614 10.452 27.607 10.425 26.115 4.138 24.484 4.3861 26.849 12.355 28.812 12.137 29.407 3.906" fill="#fff"/>
<polygon id="Path" points="32.74 12.639 33.62 9.3045 34.904 9.6525 33.954 12.983 35.414 13.448 37.64 5.5493 36.162 5.1001 35.313 8.1277 34.027 7.783 34.034 7.7533 34.808 4.756 33.317 4.408 31.263 12.306" fill="#fff"/>
<path id="Shape" d="m41.538 7.328c-0.84616-0.49042-1.5628-0.48591-2.2556 0.013533-0.69278 0.49944-1.3301 1.4951-1.9056 2.4901-1.4126 2.4405-1.8167 3.8609-0.10247 4.8546 1.8779 1.0852 2.9522-0.42211 4.1612-2.5043 0.54004-0.93122 1.0775-1.9108 1.2012-2.755 0.13662-0.92027-0.21331-1.586-1.0988-2.099zm-1.4751 4.06c-0.96087 1.6588-1.4178 2.32-1.8747 2.32-0.1071-0.0030602-0.21144-0.034651-0.30224-0.091511-0.56002-0.32544-0.29-0.99696 0.86356-2.9876 1.1536-1.9907 1.6027-2.561 2.1621-2.2362 0.13249 0.067185 0.23103 0.1865 0.27196 0.32931 0.11471 0.42469-0.25327 1.1652-1.1207 2.6641v0.0019334z" fill="#fff"/>
<polygon id="Path" points="45.983 10.827 44.873 9.7775 39.254 15.719 41.978 18.263 43.016 17.167 41.4 15.674 41.422 15.652" fill="#fff"/>
<path id="Path" d="m50.541 17.423c0.16884-0.52716 0.054778-1.1117-0.33833-1.74-0.35638-0.56711-0.79524-0.91382-1.3044-1.0311-0.55873-0.12889-1.2103 0.029644-1.8811 0.45111-1.4687 0.92156-1.3404 1.9269-1.2277 2.8136 0.087644 0.68827 0.16304 1.2824-0.50267 1.7-0.30482 0.19333-0.60256 0.27067-0.83778 0.21718-0.17612-0.042658-0.32692-0.15593-0.41696-0.3132-0.34284-0.54842 0.16047-0.95313 0.56904-1.2103l0.21976-0.13791-0.78429-1.2444-0.42276 0.26551c-1.2025 0.75593-1.4068 1.7316-0.62447 2.9825 0.81522 1.296 1.9275 1.4764 3.402 0.55229 1.3759-0.8642 1.256-1.8657 1.1503-2.7492-0.080556-0.67022-0.1566-1.3037 0.49429-1.711 0.29064-0.18496 0.54584-0.25391 0.75658-0.20751 0.15725 0.03823 0.29191 0.13934 0.37249 0.27969 0.13211 0.21331 0.13533 0.40149 0.0116 0.59418-0.10182 0.17078-0.3074 0.35251-0.64444 0.56776l0.78042 1.2509 0.13984-0.088289c0.57291-0.35767 0.9396-0.77591 1.0885-1.2418z" fill="#fff"/>
<polygon id="Path" points="51.257 21.93 51.722 23.272 53.149 22.781 51.722 18.652 50.297 19.142 50.758 20.485 50.73 20.495 44.452 22.663 44.951 24.108" fill="#fff"/>
<polygon id="Path" points="52.093 25.865 52.096 25.895 52.304 28.174 53.81 28.109 53.458 24.205 45.312 24.943 45.664 28.793 47.169 28.657 46.952 26.329 46.983 26.327 48.884 26.153 48.887 26.183 49.085 28.323 50.584 28.186 50.39 26.019" fill="#fff"/>
<polygon id="Path" points="53.736 31.441 53.869 29.921 45.721 29.207 45.587 30.733" fill="#fff"/>
<path id="Path" d="m11.729 39.064c-0.16657-0.2848-0.44057-0.49076-0.76044-0.57162-0.10313-0.026791-0.20923-0.040433-0.31578-0.0406-0.56843 0.002052-1.0645 0.38598-1.209 0.93573-0.12896 0.49104 0.052001 1.0113 0.45785 1.3163s0.9559 0.33417 1.3917 0.073757c0.5931-0.35287 0.7881-1.1196 0.43564-1.7129v-6.444e-4z" fill="#fff"/>
<path id="Path" d="m48.041 38.66c-0.19326-0.11678-0.41477-0.17851-0.64058-0.17851-0.10452 1.513e-4 -0.20862 0.013137-0.30998 0.038667-0.48965 0.12364-0.85683 0.52972-0.9307 1.0293-0.073867 0.49959 0.16009 0.99455 0.59301 1.2546 0.59351 0.35391 1.3614 0.16251 1.7194-0.42856 0.17026-0.28457 0.22049-0.62513 0.13964-0.94673-0.080855-0.32161-0.28617-0.59792-0.57077-0.76813v-6.444e-4z" fill="#fff"/>
<path id="Path" d="m30.129 11.008c-0.08171-0.053839-0.17733-0.082725-0.27518-0.083142-0.043522-2.505e-4 -0.086879 0.0053859-0.12889 0.016764-0.15516 0.044407-0.28377 0.15331-0.35316 0.29902-0.15209 0.3074-0.059289 0.69922 0.20687 0.87322 0.11766 0.079157 0.26372 0.10381 0.40084 0.067667 0.15593-0.04442 0.28555-0.15318 0.35638-0.29902 0.15531-0.30933 0.061867-0.7018-0.20687-0.87451z" fill="#fff"/>
<path id="Path" d="m25.944 11.463c-0.080579-0.054277-0.17545-0.083433-0.2726-0.083778-0.04177-4.2e-5 -0.083367 0.0053742-0.12373 0.016111-0.15616 0.045254-0.28615 0.15397-0.35831 0.29967-0.15209 0.30676-0.059933 0.69858 0.20558 0.87451 0.1191 0.079354 0.26686 0.10288 0.40471 0.064444 0.15403-0.044982 0.28156-0.15352 0.35058-0.29838 0.15467-0.30611 0.062511-0.69793-0.20622-0.87258z" fill="#fff"/>
<polygon id="Path" points="12.506 45.17 12.454 45.124 12.471 45.101 16.344 40.012 15.174 38.864 10.493 45.734 11.902 47.117 18.719 42.346 17.55 41.196" fill="#fff"/>
<path id="Shape" d="m20.575 43.317c-1.6975-1.0227-2.7479 0.016756-4.2044 2.4328-0.59418 0.98471-1.16 2.0139-1.2631 2.871-0.10376 0.8468 0.2378 1.4758 1.0756 1.981 0.87838 0.52844 1.6317 0.51233 2.3716-0.048978 0.67924-0.51556 1.2547-1.4216 1.8334-2.3844 1.2425-2.0635 2.0455-3.732 0.18689-4.8514zm-0.44209 1.9552c-0.15531 0.46593-0.53747 1.1407-1.1033 2.0783-0.56582 0.93767-0.98536 1.5924-1.3224 1.9494-0.21653 0.22684-0.40536 0.3364-0.59224 0.3364-0.10696-0.0025836-0.21112-0.034701-0.30096-0.0928-0.12704-0.066837-0.22046-0.18361-0.25778-0.32222-0.10633-0.42662 0.27518-1.16 1.1703-2.6506 1.189-1.9726 1.6472-2.534 2.2027-2.2008 0.2958 0.174 0.35638 0.44467 0.20364 0.90222z" fill="#fff"/>
<polygon id="Path" points="25.591 45.473 24.238 50.618 24.167 50.604 24.168 50.579 24.257 45.105 22.593 44.623 20.355 52.522 21.79 52.899 23.225 47.407 23.295 47.421 23.206 53.268 24.892 53.709 26.959 45.795" fill="#fff"/>
<polygon id="Path" points="52.992 35.153 53.44 33.469 45.535 31.37 45.206 32.736 50.345 34.11 50.33 34.181 50.305 34.181 44.834 34.069 44.345 35.731 52.234 38 52.617 36.567 47.131 35.11 47.144 35.04" fill="#fff"/>
<path id="Path" d="m28.725 47.109-0.16756 0.0096667 0.056711 1.16 1.285-0.064444 0.27518 5.6614 1.528-0.074756-0.39311-8.1007-1.0633 0.053489c-0.086356 0.84293-0.61351 1.3114-1.5209 1.3553z" fill="#fff"/>
<path id="Shape" d="m35.587 53.215c2.0893-0.493 1.8689-2.1164 1.2496-4.7309-0.38087-1.6324-0.76496-2.7357-1.5016-3.1926-0.40278-0.2494-0.90222-0.29967-1.5273-0.15209-0.79331 0.1856-1.2812 0.59031-1.4912 1.236-0.17207 0.53102-0.15338 1.2244 0.058644 2.1267 0.203 0.86871 0.48076 1.4558 0.84744 1.7941 0.33898 0.31256 0.75142 0.406 1.2618 0.28678 0.56131-0.12889 0.88998-0.45111 0.97633-0.94411l0.0038666-0.019333 0.064444-0.018689 0.0070889 0.031578c0.31578 1.345 0.36347 1.925 0.18238 2.2156-0.076341 0.11672-0.19769 0.19654-0.33511 0.2204-0.17449 0.046701-0.35961-0.020147-0.464-0.16756-0.096022-0.12051-0.17013-0.29967-0.22684-0.54584l-1.4358 0.33576c0.33511 1.2953 1.1188 1.8096 2.3303 1.5241zm-0.33576-4.3867c-0.06053 0.11154-0.16421 0.19332-0.28678 0.2262-0.059705 0.018556-0.12179 0.028325-0.18431 0.029-0.16176 0-0.2958-0.076689-0.41373-0.23522-0.1392-0.18624-0.26229-0.48398-0.42404-1.026-0.28613-0.97376-0.232-1.4423 0.18044-1.566 0.52071-0.15338 0.80813 0.5568 1.0434 1.3462 0.18689 0.61351 0.21396 0.9918 0.085067 1.2257z" fill="#fff"/>
<path id="Shape" d="m37.737 48.076c0.74756 1.41 1.4403 2.599 2.3535 2.8781 0.44596 0.13662 0.93831 0.055422 1.5054-0.24747 1.7632-0.93702 1.0311-2.6712-0.021911-4.6735-0.9164-1.7207-1.6672-2.9354-2.802-2.9354-0.32222 0-0.66958 0.096667-1.0627 0.30547-1.7606 0.93509-1.0292 2.6712 0.027711 4.6729zm0.34478-3.4233c0.038492-0.11486 0.12333-0.20835 0.23393-0.25778 0.26487-0.13598 0.4872-0.045756 0.76689 0.31191 0.28742 0.36798 0.64444 1.0311 1.169 2.0519 0.51556 1.0111 0.83778 1.6839 0.96667 2.1305 0.12502 0.43564 0.068311 0.66764-0.19333 0.80233-0.068671 0.037585-0.14536 0.058138-0.22362 0.059933-0.40729 0-0.80104-0.64444-1.6988-2.4044-0.82231-1.5963-1.1413-2.3239-1.0208-2.6944z" fill="#fff"/>
<path id="a" d="m43.117 40.255c-0.22229-0.098988-0.46236-0.15182-0.70567-0.15531-0.46336 0-0.90609 0.21396-1.3566 0.6496-1.439 1.3862-0.25778 2.8517 1.3108 4.4853 1.1065 1.1471 2.1002 2.099 3.0566 2.1157h0.026422c0.45691 0 0.90222-0.21331 1.3533-0.65218 1.432-1.3849 0.25391-2.851-1.3108-4.486-0.95636-0.99116-1.6878-1.664-2.3741-1.9572zm2.8536 5.6292c-0.08155 0.084317-0.19274 0.13355-0.30998 0.13727-0.3828 0-0.94282-0.5336-2.1853-1.8624-1.2244-1.3121-1.7348-1.923-1.7213-2.311 0.0060849-0.12055 0.062133-0.23312 0.15467-0.31062 0.21847-0.20364 0.45756-0.17787 0.82424 0.088289 0.37764 0.27518 0.90222 0.81393 1.6859 1.6524 1.595 1.7039 1.9649 2.2195 1.5518 2.6061z" fill="#fff"/>
<path d="m29 14.165c-8.1799 0-14.835 6.6552-14.835 14.836 0 8.1806 6.6545 14.833 14.835 14.833s14.835-6.6539 14.835-14.834-6.6545-14.835-14.835-14.835zm0 0.82295c4.0812-0.0014208 7.9594 1.7801 10.617 4.8772l-0.60384-0.047689c-0.050911-0.0038667-5.1059-0.40213-10.013-0.40213s-9.9625 0.39827-10.013 0.40213l-0.60384 0.047689c2.6577-3.0969 6.5356-4.8784 10.617-4.8772zm-14.013 14.012c-0.0029633-3.2934 1.1595-6.4817 3.2815-9.0003l0.0058 0.78751c0.026422 3.9485 0.047689 7.0676 1.5299 11.347 0.93444 2.697 2.1731 4.7044 4.4183 7.1533 1.74 1.9024 3.199 2.8716 4.3932 3.5683l0.26164 0.15209c-7.6702-0.0638-13.89-6.322-13.89-14.008zm14.135 14.01 0.26422-0.15402c1.1046-0.64444 2.6016-1.6324 4.3906-3.5657 2.204-2.3844 3.4852-4.4557 4.4215-7.1572 1.4822-4.2785 1.5022-7.3969 1.5293-11.342l0.0051555-0.78944c2.1208 2.5187 3.2823 5.7064 3.2789 8.999 0 7.685-6.2189 13.943-13.89 14.01z" fill="#fff"/>
<path id="Path" d="m29 20.206c-4.9339 0-9.9528 0.39956-9.9528 0.39956 0.027067 4.0033 0.026422 7.0496 1.4867 11.265 0.95958 2.7711 2.242 4.6812 4.2533 6.8788 1.6826 1.8367 3.0998 2.7711 4.2121 3.4214 1.1117-0.64831 2.5204-1.5931 4.2121-3.4214 1.9765-2.1363 3.2944-4.1103 4.2533-6.8788 1.4597-4.2153 1.4597-7.2616 1.488-11.265 0 0-5.0189-0.39956-9.9528-0.39956z" fill="#E20031"/>
<polygon id="Path" points="29.006 41.078 26.54 39.204 28.276 36.059 23.866 37.218 26.201 34.062 22.181 34.59 25.024 31.618 20.8 31.49 23.959 29.03 19.873 28.307 23.615 26.182 19.936 24.593 19.904 21.417 22.932 21.225 24.465 25.372 26.013 21.082 27.494 25.175 29.012 20.959 30.529 25.175 32.009 21.082 33.557 25.372 35.09 21.225 38.119 21.417 38.069 24.593 34.407 26.182 38.149 28.307 34.064 29.03 37.222 31.49 32.999 31.618 35.841 34.59 31.821 34.062 34.156 37.218 29.746 36.059 31.483 39.204" fill="#fff"/>
<path id="Path" d="m33.859 26.456-0.64444 0.0032222c0 0.26487-0.096667 0.48913-0.21718 0.70889-0.31062 0.41438-0.76302 0.75593-1.1735 0.89836v-0.74949h-0.51556l0.0051556 1.0105c-0.26744 0.083778-0.53296 0.17658-0.80942 0.24618v0.6032c1.1296-0.26831 2.1626-0.84451 2.9844-1.6646-0.28807 2.532-2.106 4.4409-4.4821 4.4538-2.3748-0.012889-4.1683-1.952-4.4802-4.4518 0.81694 0.81484 1.8426 1.3888 2.9644 1.6588v-0.59933l-0.83778-0.25391s-0.015467-0.98342-0.0038666-1.0028h-0.51169v0.76431c-0.62704-0.28162-1.3591-0.88096-1.3984-1.6446h-0.64444c-0.1334 2.32 0.93316 4.631 3.0824 5.6028 1.2928 0.62704 3.1198 0.42791 4.2914-0.34929 1.78-1.2212 2.5301-3.1217 2.3909-5.2342z" fill="#58585A"/>
<path id="Path" d="m29.004 30.468c1.2715 4.586e-4 2.5151-0.3729 3.576-1.0736 0.17117-0.32265 0.30728-0.66271 0.406-1.0144-2.3538 1.7685-5.5919 1.773-7.9505 0.010956 0.10327 0.3551 0.24413 0.69816 0.42018 1.0234 1.0554 0.6883 2.2883 1.0544 3.5483 1.0537z" fill="#58585A"/>
<path id="b" d="m29.004 30.86c-1.0924 1.533e-4 -2.1671-0.27584-3.1243-0.80233 0.76302 0.97762 1.8689 1.5699 3.1243 1.577 1.2824-0.0070889 2.4025-0.60836 3.1636-1.6002-0.96656 0.54123-2.0558 0.82546-3.1636 0.82553z" fill="#58585A"/>
<path d="m29.004 29.354c0.35337-0.0018245 0.70599-0.032646 1.0543-0.092156v-0.63607c-0.70951 0.089575-1.4275 0.089575-2.137 0v0.63542c0.35764 0.061297 0.71981 0.092341 1.0827 0.0928z" fill="#58585A"/>
</g>
</g>
</svg>
