<svg id="Layer_1" data-name="Layer 1" xmlns="http://www.w3.org/2000/svg" viewBox="0 0 123.88 123.88"><defs><style>.cls-1{fill:#fff;stroke:#000;stroke-miterlimit:10;fill-rule:evenodd;}</style></defs><title>goal_white</title><path class="cls-1" d="M61.44,0A61.46,61.46,0,1,1,18,18,61.21,61.21,0,0,1,61.44,0ZM76.85,117.08l-.12-.08,6.89-23.09L69.41,78.15,52.66,78,39.38,94.62,46,116.94l-.15.1a58.11,58.11,0,0,0,31,0ZM12.22,91.61l24.34.12L49.28,75.8,44,59.68,22.6,50.38,3.78,64.08a57.4,57.4,0,0,0,8.44,27.53Zm4.55-66.73L24.17,47l20,8.68,15.44-12V20.94L40.51,7.63a57.85,57.85,0,0,0-19.89,13C19.27,22,18,23.4,16.77,24.88ZM81.7,7.37,63.3,20.77V43.7L77.8,54.91,98.61,46l7.18-21.49q-1.68-2-3.54-3.88A57.76,57.76,0,0,0,81.7,7.37Zm37.39,57h0l-20-14.55L79.28,58.31l-6.08,18L86.93,91.57a.43.43,0,0,1,.11.21l23.6-.11a57.62,57.62,0,0,0,8.45-27.31Z" transform="translate(0.5 0.5)"/></svg>